<?xml version="1.0" encoding="UTF-8" standalone="no"?>
<svg
   xmlns:dc="http://purl.org/dc/elements/1.1/"
   xmlns:cc="http://creativecommons.org/ns#"
   xmlns:rdf="http://www.w3.org/1999/02/22-rdf-syntax-ns#"
   xmlns:svg="http://www.w3.org/2000/svg"
   xmlns="http://www.w3.org/2000/svg"
   xmlns:sodipodi="http://sodipodi.sourceforge.net/DTD/sodipodi-0.dtd"
   xmlns:inkscape="http://www.inkscape.org/namespaces/inkscape"
   enable-background="new 0 0 803 331"
   viewBox="0 0 900.05347 300.13107"
   xml:space="preserve"
   id="svg2"
   version="1.1"
   inkscape:version="0.48.4 r9939"
   width="100%"
   height="100%"
   sodipodi:docname="dragonfly.svg"
   inkscape:export-filename="/home/frank/Dropbox/expressive-tests-with-spock-and-groovy-builders-take2/src/main/resources/dragonfly.png"
   inkscape:export-xdpi="14.393711"
   inkscape:export-ydpi="14.393711"><metadata
     id="metadata180"><rdf:RDF><cc:Work
         rdf:about=""><dc:format>image/svg+xml</dc:format><dc:type
           rdf:resource="http://purl.org/dc/dcmitype/StillImage" /><dc:title /></cc:Work></rdf:RDF></metadata><sodipodi:namedview
     pagecolor="#ffffff"
     bordercolor="#666666"
     borderopacity="1"
     objecttolerance="10"
     gridtolerance="10"
     guidetolerance="10"
     inkscape:pageopacity="0"
     inkscape:pageshadow="2"
     inkscape:window-width="1920"
     inkscape:window-height="1025"
     id="namedview178"
     showgrid="false"
     fit-margin-top="0"
     fit-margin-left="0"
     fit-margin-right="0"
     fit-margin-bottom="0"
     inkscape:zoom="0.44040926"
     inkscape:cx="468.00124"
     inkscape:cy="159.55897"
     inkscape:window-x="0"
     inkscape:window-y="27"
     inkscape:window-maximized="1"
     inkscape:current-layer="g6" /><defs
     id="defs4" /><g
     transform="matrix(1.1390931,0,0,-0.93989699,-7.7540078,305.76024)"
     id="g6"><path
       d="m 392.528,160.455 c 0,0 7.409,10.123 -3.135,58.168 -10.558,48.043 -1.812,88.167 14.232,106.078 0,0 22.217,-30.261 15.92,-67.053 -5.219,-30.549 -8.07,-47.576 -8.07,-47.576 0,0 -5.627,-37.771 1.822,-48.735"
       id="path8"
       inkscape:connector-curvature="0"
       style="fill:#f9b510;stroke:#000000;stroke-width:0.79140002" /><path
       d="m 395.555,166.264 c 0,0 5.324,7.276 -2.254,41.811 -7.588,34.534 -1.304,63.376 10.229,76.248 0,0 15.967,-21.75 11.446,-48.197 -3.754,-21.957 -5.807,-34.197 -5.807,-34.197 0,0 -4.039,-27.149 1.314,-35.03"
       id="path10"
       inkscape:connector-curvature="0"
       style="fill:#bf0b29" /><path
       d="m 396.861,165.815 c 0,0 4.261,5.82 -1.804,33.449 -6.065,27.629 -1.041,50.701 8.185,60.999 0,0 12.776,-17.401 9.157,-38.558 -3.002,-17.567 -4.645,-27.358 -4.645,-27.358 0,0 -3.234,-21.719 1.049,-28.024"
       id="path12"
       inkscape:connector-curvature="0"
       style="fill:#f0e75f" /><path
       d="m 398.531,166.892 c 0,0 2.779,4.366 -1.176,25.087 -3.955,20.721 -0.68,38.025 5.337,45.75 0,0 8.333,-13.053 5.972,-28.92 -1.957,-13.174 -3.025,-20.519 -3.025,-20.519 0,0 -2.113,-16.289 0.682,-21.018"
       id="path14"
       inkscape:connector-curvature="0"
       style="fill:#bc4e93" /><path
       d="m 407.168,85.745 c 0,0 8.08,-10.722 -23.375,-14.601 C 352.336,67.262 359.026,22.191 372.457,9.476"
       id="path16"
       inkscape:connector-curvature="0"
       style="fill:none;stroke:#000000;stroke-width:0.79140002" /><path
       d="m 370.62099,14.778 a 2.011,9.347 0 1 0 -4.022,0 2.011,9.347 0 1 0 4.022,0"
       transform="matrix(-0.8942,-0.4477,0.4477,-0.8942,691.589,193.0352)"
       id="path18"
       inkscape:connector-curvature="0"
       style="fill:#fff1a0;stroke:#000000;stroke-width:0.79140002" /><path
       d="m 395.542,85.933 c 0,0 -7.977,-10.799 23.51,-14.381 31.488,-3.587 25.225,-48.718 11.914,-61.561"
       id="path20"
       inkscape:connector-curvature="0"
       style="fill:none;stroke:#000000;stroke-width:0.79140002" /><path
       d="m 436.574,14.449 c 2.266,4.637 3.299,8.792 2.293,9.281 -0.994,0.487 -3.641,-2.878 -5.908,-7.517 -2.267,-4.639 -3.297,-8.794 -2.297,-9.281 1,-0.485 3.643,2.879 5.912,7.517 z"
       id="path22"
       inkscape:connector-curvature="0"
       style="fill:#fff1a0;stroke:#000000;stroke-width:0.79140002" /><path
       d="m 393.987,93.726 c 0.002,3.451 -1.439,5.978 -3.259,5.659 -1.827,-0.333 -3.317,-3.385 -3.336,-6.82 -0.021,-3.45 1.435,-5.974 3.262,-5.664 1.811,0.329 3.309,3.391 3.333,6.825 z"
       id="path24"
       inkscape:connector-curvature="0" /><path
       d="m 417.139,92.235 c 0.02,3.441 -1.424,5.986 -3.254,5.655 -1.82,-0.327 -3.307,-3.379 -3.332,-6.828 -0.037,-3.443 1.434,-5.967 3.238,-5.656 1.848,0.331 3.328,3.379 3.348,6.829 z"
       id="path26"
       inkscape:connector-curvature="0" /><path
       d="m 414.119,154.291 c -0.662,13.234 -6.617,22.555 -13.286,20.811 -6.667,-1.722 -11.538,-13.844 -10.873,-27.073 0.662,-13.224 6.608,-22.556 13.281,-20.824 6.665,1.735 11.54,13.86 10.878,27.086 z"
       id="path28"
       inkscape:connector-curvature="0"
       style="fill:#6bc6e1;stroke:#000000;stroke-width:0.79140002" /><path
       d="m 417.836,130.514 c -1.527,13.952 -9.738,23.123 -18.339,20.505 -8.604,-2.635 -14.361,-16.086 -12.836,-30.036 1.507,-13.955 9.726,-23.129 18.328,-20.494 8.611,2.629 14.361,16.074 12.847,30.025 z"
       id="path30"
       inkscape:connector-curvature="0"
       style="fill:#2b4a97;stroke:#000000;stroke-width:0.79140002" /><path
       d="m 413.30899,93.374 a 11.216,11.216 0 1 0 -22.432,0 11.216,11.216 0 1 0 22.432,0"
       id="path32"
       inkscape:connector-curvature="0"
       style="fill:#2b4a97;stroke:#000000;stroke-width:0.79140002" /><g
       id="g34"
       style="opacity:0.8"><path
         d="m 395.562,104.753 c 0.047,0 0.063,-0.016 0.063,-0.016 -3.498,9.781 -124.417,134.183 -189.325,177.232 -11.585,7.676 -23.741,13.295 -35.896,17.331 2.533,-40.313 106.992,-138.219 108.622,-139.754 l 0.016,-0.016 c 59.368,-28.33 114.399,-53.78 116.52,-54.777 z"
         id="path36"
         inkscape:connector-curvature="0"
         style="fill:#f0e75f" /><path
         d="m 232.194,164.216 163.368,-59.463 c -2.121,0.997 -57.152,26.447 -116.52,54.778 l -0.016,0.016 c -0.966,0.443 -1.915,0.902 -2.881,1.361 l -0.665,-1.377 c 10e-4,0 -27.759,-0.966 -43.286,4.685 z"
         id="path38"
         inkscape:connector-curvature="0"
         style="fill:#652381" /><path
         d="m 276.146,160.908 c 0.966,-0.459 1.915,-0.918 2.881,-1.361 -1.63,1.536 -106.089,99.442 -108.622,139.754 -15.146,5.049 -30.309,7.645 -44.363,8.752 l -0.126,-1.425 c -7.866,-14.972 23.741,-82.063 24.184,-82.997 v -0.016 c 15.21,-8.356 37.922,-19.863 63.499,-32.445 h 0.016 c 19.845,-9.766 41.402,-20.165 62.531,-30.262 z"
         id="path40"
         inkscape:connector-curvature="0"
         style="fill:#f9b510" /><path
         d="m 275.481,159.531 0.665,1.377 c -21.129,10.098 -42.686,20.496 -62.533,30.262 h -0.016 c -0.997,-0.111 -42.971,-4.559 -47.006,-3.086 l 65.604,-23.867 c 15.526,-5.652 43.286,-4.686 43.286,-4.686 z"
         id="path42"
         inkscape:connector-curvature="0"
         style="fill:#bc4e93" /><path
         d="m 166.591,188.083 c 4.036,-1.472 46.009,2.976 47.006,3.086 -25.577,12.583 -48.289,24.089 -63.499,32.445 0,0 -59.051,3.941 -79.278,19.072 35.674,-29.059 77.458,-47.94 77.458,-47.94 l 18.313,-6.663 z"
         id="path44"
         inkscape:connector-curvature="0"
         style="fill:#bf0b29" /><path
         d="m 150.099,223.615 v 0.016 c -7.977,4.368 -13.88,7.897 -17.062,10.256 -27.697,20.575 -64.464,62.201 -64.274,71.46 -6.632,-1.156 -10.446,-2.153 -10.446,-2.153 l -18.439,-7.011 c -18.454,-7.012 -0.269,-22.253 -0.269,-22.253 8.151,-10.62 18.328,-20.544 29.154,-29.534 0.174,-0.158 0.333,-0.316 0.522,-0.443 0.507,-0.427 1.029,-0.839 1.536,-1.266 20.227,-15.131 79.278,-19.072 79.278,-19.072 z"
         id="path46"
         inkscape:connector-curvature="0"
         style="fill:#6bc6e1" /><path
         d="m 133.037,233.887 c 3.181,-2.358 9.085,-5.888 17.062,-10.256 -0.443,0.934 -32.05,68.025 -24.184,82.997 l 0.126,1.425 c -24.342,1.915 -45.36,-0.633 -57.278,-2.706 -0.19,-9.259 36.577,-50.885 64.274,-71.46 z"
         id="path48"
         inkscape:connector-curvature="0"
         style="fill:#2b4a97" /><path
         d="m 68.763,244.396 c -10.826,8.99 -21.003,18.914 -29.154,29.534 0,0 -18.185,15.241 0.269,22.253 l 18.439,7.011 c 0,0 3.814,0.997 10.446,2.153 11.918,2.073 32.936,4.621 57.278,2.706 14.055,-1.107 29.217,-3.703 44.363,-8.752 12.155,-4.036 24.311,-9.655 35.896,-17.331 64.907,-43.05 185.827,-167.451 189.325,-177.232"
         id="path50"
         inkscape:connector-curvature="0"
         style="fill:none;stroke:#000000;stroke-width:0.79140001999999998" /><path
         d="m 395.562,104.753 -163.368,59.463 -65.604,23.867 -18.312,6.663 c 0,0 -41.784,18.882 -77.458,47.94 -0.507,0.427 -1.029,0.839 -1.536,1.266"
         id="path52"
         inkscape:connector-curvature="0"
         style="fill:none;stroke:#000000;stroke-width:0.79140001999999998" /><path
         d="m 150.099,223.631 c -7.977,4.368 -13.88,7.897 -17.062,10.256 -27.697,20.575 -64.464,62.201 -64.274,71.46"
         id="path54"
         inkscape:connector-curvature="0"
         style="fill:none;stroke:#000000;stroke-width:0.79140001999999998" /><path
         d="m 213.597,191.169 c -25.577,12.583 -48.289,24.089 -63.499,32.445"
         id="path56"
         inkscape:connector-curvature="0"
         style="fill:none;stroke:#000000;stroke-width:0.79140001999999998" /><path
         d="m 279.027,159.546 c -0.966,0.443 -1.915,0.902 -2.881,1.361 -21.129,10.098 -42.686,20.496 -62.533,30.262"
         id="path58"
         inkscape:connector-curvature="0"
         style="fill:none;stroke:#000000;stroke-width:0.79140001999999998" /><path
         d="m 395.625,104.737 c 0,0 -0.016,0.016 -0.063,0.016 -2.121,0.997 -57.152,26.447 -116.52,54.778"
         id="path60"
         inkscape:connector-curvature="0"
         style="fill:none;stroke:#000000;stroke-width:0.79140001999999998" /><path
         d="m 279.042,159.531 -0.016,0.016 c -1.63,1.536 -106.089,99.442 -108.622,139.754"
         id="path62"
         inkscape:connector-curvature="0"
         style="fill:none;stroke:#000000;stroke-width:0.79140001999999998" /><path
         d="m 125.915,306.628 c -7.866,-14.972 23.741,-82.063 24.184,-82.997 v -0.016 c 0,0 -59.051,3.941 -79.278,19.072 -0.538,0.412 -1.061,0.823 -1.536,1.266 -0.189,0.127 -0.348,0.285 -0.522,0.443"
         id="path64"
         inkscape:connector-curvature="0"
         style="fill:none;stroke:#000000;stroke-width:0.79140001999999998" /><path
         d="m 213.613,191.169 h -0.016 c -0.997,-0.111 -42.971,-4.559 -47.006,-3.086"
         id="path66"
         inkscape:connector-curvature="0"
         style="fill:none;stroke:#000000;stroke-width:0.79140001999999998" /><path
         d="m 275.481,159.531 c 0,0 -27.761,-0.965 -43.287,4.685"
         id="path68"
         inkscape:connector-curvature="0"
         style="fill:none;stroke:#000000;stroke-width:0.79140001999999998" /></g><g
       id="g70"
       style="opacity:0.9"><path
         d="m 395.625,102.84 c -11.886,29.074 -95.026,55.648 -184.877,80.085 -26.812,7.296 -53.448,5.365 -77.616,-0.934 8.008,-12.234 61.631,-41.578 61.631,-41.578 C 259.195,99.595 332.459,97.6 332.459,97.6 v -0.016 c 36.767,2.866 63.166,5.256 63.166,5.256 z"
         id="path72"
         inkscape:connector-curvature="0"
         style="fill:#f0e75f" /><path
         d="m 395.625,102.84 c 0,0 -26.4,-2.39 -63.167,-5.255 -29.328,-2.263 -65.255,-4.843 -99.664,-6.758 l -0.016,-0.016 c -0.522,-0.696 -16.999,-21.794 -49.365,-26.51 87.811,11 212.212,38.539 212.212,38.539 z"
         id="path74"
         inkscape:connector-curvature="0"
         style="fill:#bc4e93" /><path
         d="m 332.459,97.585 v 0.016 c 0,0 -73.264,1.994 -137.696,42.813 0,0 -53.623,29.343 -61.631,41.578 -15.495,-4.036 -29.977,-9.86 -42.844,-16.223 0.775,-22.918 83.916,-77.458 83.916,-77.458 v -0.016 c 17.806,0.475 37.922,1.377 58.576,2.517 l 0.016,0.016 c 34.408,1.915 70.335,4.494 99.663,6.757 z"
         id="path76"
         inkscape:connector-curvature="0"
         style="fill:#2b4a97" /><path
         d="m 183.415,64.301 c 32.366,4.716 48.842,25.814 49.365,26.51 -20.654,-1.14 -40.771,-2.042 -58.576,-2.517 -7.945,-13.326 -64.369,-27.365 -64.369,-27.365 v -0.016 l 2.659,-0.333 c 14.292,-1.788 38.317,-0.221 66.521,3.182 0.111,0.016 0.237,0.016 0.348,0.047 1.345,0.16 2.691,0.318 4.052,0.492 z"
         id="path78"
         inkscape:connector-curvature="0"
         style="fill:#bf0b29" /><path
         d="m 174.204,88.295 v 0.016 c 0,0 -83.14,54.54 -83.916,77.458 -21.446,-10.573 -38.397,-22.57 -48.099,-30.072 l 0.016,-0.016 c 27.856,-26.891 42.559,-32.461 68.674,-44.332 1.156,-0.522 2.77,-0.981 4.796,-1.377 10.462,-2.025 31.923,-2.342 58.529,-1.677 z"
         id="path80"
         inkscape:connector-curvature="0"
         style="fill:#f9b510" /><path
         d="M 174.204,88.295 C 147.599,87.63 126.137,87.947 115.675,89.973 101.668,85.51 43.867,77.644 42.237,77.422 58.935,71.392 82.216,64.618 109.835,60.914 v 0.016 c -10e-4,0 56.423,14.039 64.369,27.365 z"
         id="path82"
         inkscape:connector-curvature="0"
         style="fill:#6bc6e1" /><path
         d="M 115.675,89.973 42.237,77.422 c 1.63,0.222 59.431,8.087 73.438,12.551 z"
         id="path84"
         inkscape:connector-curvature="0"
         style="fill:#6ab023" /><path
         d="m 42.237,77.422 73.438,12.551 c -2.026,0.396 -3.64,0.854 -4.796,1.377 -26.115,11.871 -40.818,17.441 -68.674,44.332 l -0.016,0.016 c -5.809,-4.511 -9.021,-7.407 -9.021,-7.407 0,0 0.775,-0.728 -19.167,-20.923 -15.194,-15.4 -0.206,-17.79 -0.206,-17.79 0,0 10.398,-5.65 28.426,-12.155 h 0.016 z"
         id="path86"
         inkscape:connector-curvature="0"
         style="fill:#2b4a97" /><path
         d="m 42.221,77.422 c -18.027,6.505 -28.426,12.155 -28.426,12.155 0,0 -14.988,2.39 0.206,17.79 19.942,20.195 19.167,20.923 19.167,20.923 0,0 3.213,2.896 9.021,7.407 9.702,7.502 26.653,19.499 48.099,30.072 12.867,6.362 27.349,12.187 42.844,16.223 24.168,6.299 50.805,8.23 77.616,0.934 89.851,-24.438 172.991,-51.011 184.877,-80.085 0,0 -124.401,-27.54 -212.21,-38.539 -1.361,-0.174 -2.707,-0.333 -4.052,-0.491"
         id="path88"
         inkscape:connector-curvature="0"
         style="fill:none;stroke:#000000;stroke-width:0.79140002" /><path
         d="m 179.015,63.763 c -28.204,-3.403 -52.229,-4.97 -66.521,-3.182 l -2.659,0.333 c -27.618,3.704 -50.9,10.478 -67.598,16.508"
         id="path90"
         inkscape:connector-curvature="0"
         style="fill:none;stroke:#000000;stroke-width:0.79140002" /><path
         d="m 232.78,90.812 c -20.654,-1.14 -40.771,-2.042 -58.576,-2.517 -26.605,-0.665 -48.067,-0.348 -58.529,1.678 -2.026,0.396 -3.64,0.854 -4.796,1.377 -26.115,11.871 -40.818,17.441 -68.674,44.332"
         id="path92"
         inkscape:connector-curvature="0"
         style="fill:none;stroke:#000000;stroke-width:0.79140002" /><path
         d="m 395.625,102.84 c 0,0 -26.4,-2.39 -63.167,-5.255 -29.328,-2.263 -65.255,-4.843 -99.664,-6.758"
         id="path94"
         inkscape:connector-curvature="0"
         style="fill:none;stroke:#000000;stroke-width:0.79140002" /><path
         d="m 332.459,97.602 c 0,0 -73.264,1.994 -137.696,42.813 0,0 -53.623,29.343 -61.631,41.578"
         id="path96"
         inkscape:connector-curvature="0"
         style="fill:none;stroke:#000000;stroke-width:0.79140002" /><path
         d="m 42.237,77.422 c 1.63,0.222 59.431,8.087 73.438,12.551"
         id="path98"
         inkscape:connector-curvature="0"
         style="fill:none;stroke:#000000;stroke-width:0.79140002" /><path
         d="M 42.237,77.422 H 42.221 42.205"
         id="path100"
         inkscape:connector-curvature="0"
         style="fill:none;stroke:#000000;stroke-width:0.79140002" /><path
         d="m 109.834,60.93 c 0,0 56.424,14.039 64.369,27.365 v 0.016 c 0,0 -83.14,54.54 -83.916,77.458"
         id="path102"
         inkscape:connector-curvature="0"
         style="fill:none;stroke:#000000;stroke-width:0.79140002" /><path
         d="m 232.795,90.827 -0.016,-0.016 c -0.522,-0.696 -16.999,-21.794 -49.365,-26.51 -1.33,-0.206 -2.675,-0.364 -4.052,-0.491 -0.111,-0.032 -0.237,-0.032 -0.348,-0.047"
         id="path104"
         inkscape:connector-curvature="0"
         style="fill:none;stroke:#000000;stroke-width:0.79140002" /></g><g
       id="g106"
       style="opacity:0.8"><path
         d="m 408.162,103.008 c -0.048,0 -0.063,-0.016 -0.063,-0.016 3.438,9.802 123.599,134.937 188.243,178.38 11.538,7.746 23.659,13.438 35.79,17.549 C 629.845,258.595 525.983,160.054 524.361,158.509 l -0.016,-0.016 C 465.151,129.802 410.276,104.018 408.162,103.008 z"
         id="path108"
         inkscape:connector-curvature="0"
         style="fill:#f0e75f" /><path
         d="m 527.233,159.888 c -0.946,-0.449 -1.909,-0.914 -2.872,-1.378 1.621,1.545 105.483,100.085 107.771,140.412 15.115,5.141 30.262,7.828 44.31,9.021 l 0.135,-1.423 c 7.957,-14.925 -23.241,-82.207 -23.679,-83.144 v -0.016 c -15.158,-8.449 -37.8,-20.093 -63.3,-32.832 h -0.016 c -19.788,-9.885 -41.281,-20.414 -62.349,-30.64 z"
         id="path110"
         inkscape:connector-curvature="0"
         style="fill:#f9b510" /><path
         d="m 524.361,158.509 c 0.963,0.465 1.926,0.93 2.872,1.378 l 0.674,-1.373 c 0,0 27.766,-0.796 43.258,4.948 L 408.162,103.007 c 2.114,1.01 56.989,26.794 116.184,55.485 l 0.015,0.017 z"
         id="path112"
         inkscape:connector-curvature="0"
         style="fill:#652381" /><path
         d="m 571.165,163.463 c -15.492,-5.745 -43.258,-4.948 -43.258,-4.948 l -0.674,1.373 c 21.067,10.226 42.561,20.755 62.349,30.641 h 0.016 c 0.998,-0.104 42.997,-4.296 47.024,-2.8 l -65.457,-24.266 z"
         id="path114"
         inkscape:connector-curvature="0"
         style="fill:#bc4e93" /><path
         d="m 636.622,187.729 c -4.027,-1.496 -46.026,2.696 -47.024,2.8 25.5,12.738 48.142,24.382 63.3,32.832 0,0 59.026,4.3 79.161,19.553 -35.497,-29.275 -77.165,-48.411 -77.165,-48.411 l -18.272,-6.774 z"
         id="path116"
         inkscape:connector-curvature="0"
         style="fill:#bf0b29" /><path
         d="m 652.897,223.36 v 0.016 c 7.95,4.417 13.832,7.982 16.999,10.359 27.572,20.743 64.085,62.592 63.838,71.85 6.639,-1.115 10.459,-2.089 10.459,-2.089 l 18.481,-6.899 c 18.496,-6.899 0.404,-22.251 0.404,-22.251 -8.087,-10.67 -18.203,-20.655 -28.974,-29.71 -0.173,-0.159 -0.33,-0.318 -0.52,-0.446 -0.504,-0.43 -1.023,-0.845 -1.527,-1.275 -20.133,-15.255 -79.16,-19.555 -79.16,-19.555 z"
         id="path118"
         inkscape:connector-curvature="0"
         style="fill:#6bc6e1" /><path
         d="m 669.896,233.735 c -3.167,-2.377 -9.049,-5.942 -16.999,-10.359 0.438,0.937 31.636,68.219 23.679,83.144 l -0.135,1.423 c 24.33,2.063 45.363,-0.356 57.293,-2.357 0.247,-9.259 -36.265,-51.107 -63.838,-71.851 z"
         id="path120"
         inkscape:connector-curvature="0"
         style="fill:#2b4a97" /><path
         d="m 734.105,244.635 c 10.771,9.056 20.887,19.041 28.974,29.71 0,0 18.092,15.352 -0.404,22.251 l -18.481,6.899 c 0,0 -3.82,0.974 -10.459,2.089 -11.93,2.001 -32.963,4.421 -57.293,2.357 -14.048,-1.193 -29.194,-3.881 -44.31,-9.021 -12.131,-4.11 -24.252,-9.803 -35.79,-17.549 C 531.697,237.927 411.537,112.793 408.099,102.991"
         id="path122"
         inkscape:connector-curvature="0"
         style="fill:none;stroke:#000000;stroke-width:0.79140001999999998" /><path
         d="m 408.162,103.008 163.003,60.455 65.457,24.266 18.271,6.774 c 0,0 41.668,19.136 77.165,48.411 0.504,0.431 1.023,0.845 1.527,1.275"
         id="path124"
         inkscape:connector-curvature="0"
         style="fill:none;stroke:#000000;stroke-width:0.79140001999999998" /><path
         d="m 652.897,223.376 c 7.95,4.417 13.832,7.982 16.999,10.359 27.572,20.743 64.085,62.592 63.838,71.85"
         id="path126"
         inkscape:connector-curvature="0"
         style="fill:none;stroke:#000000;stroke-width:0.79140001999999998" /><path
         d="m 589.598,190.529 c 25.5,12.738 48.142,24.382 63.3,32.832"
         id="path128"
         inkscape:connector-curvature="0"
         style="fill:none;stroke:#000000;stroke-width:0.79140001999999998" /><path
         d="m 524.361,158.509 c 0.963,0.465 1.926,0.93 2.872,1.378 21.067,10.226 42.561,20.755 62.349,30.641"
         id="path130"
         inkscape:connector-curvature="0"
         style="fill:none;stroke:#000000;stroke-width:0.79140001999999998" /><path
         d="m 408.099,102.992 c 0,0 0.016,0.016 0.063,0.016 2.114,1.01 56.989,26.794 116.184,55.485"
         id="path132"
         inkscape:connector-curvature="0"
         style="fill:none;stroke:#000000;stroke-width:0.79140001999999998" /><path
         d="m 524.346,158.493 0.016,0.016 c 1.621,1.545 105.483,100.085 107.771,140.412"
         id="path134"
         inkscape:connector-curvature="0"
         style="fill:none;stroke:#000000;stroke-width:0.79140001999999998" /><path
         d="m 676.576,306.52 c 7.957,-14.925 -23.241,-82.207 -23.679,-83.144 v -0.016 c 0,0 59.026,4.3 79.161,19.553 0.535,0.415 1.055,0.83 1.527,1.275 0.189,0.128 0.347,0.287 0.52,0.446"
         id="path136"
         inkscape:connector-curvature="0"
         style="fill:none;stroke:#000000;stroke-width:0.79140001999999998" /><path
         d="m 589.582,190.529 h 0.016 c 0.998,-0.104 42.997,-4.296 47.024,-2.8"
         id="path138"
         inkscape:connector-curvature="0"
         style="fill:none;stroke:#000000;stroke-width:0.79140001999999998" /><path
         d="m 527.907,158.515 c 0,0 27.766,-0.796 43.258,4.948"
         id="path140"
         inkscape:connector-curvature="0"
         style="fill:none;stroke:#000000;stroke-width:0.79140001999999998" /></g><g
       id="g142"
       style="opacity:0.9"><path
         d="m 620.551,63.847 c -87.874,10.466 -212.44,37.248 -212.44,37.248 0,0 26.413,-2.229 63.196,-4.871 29.341,-2.084 65.284,-4.446 99.703,-6.152 l 0.016,-0.016 c 0.526,-0.693 17.13,-21.69 49.525,-26.209 z"
         id="path144"
         inkscape:connector-curvature="0"
         style="fill:#bc4e93" /><path
         d="m 408.11,101.095 c 11.709,29.146 94.686,56.225 184.386,81.208 26.767,7.459 53.415,5.69 77.621,-0.462 C 662.182,169.558 608.74,139.889 608.74,139.889 544.558,98.68 471.307,96.24 471.307,96.24 v -0.016 c -36.784,2.641 -63.197,4.871 -63.197,4.871 z"
         id="path146"
         inkscape:connector-curvature="0"
         style="fill:#f0e75f" /><path
         d="m 471.307,96.224 v 0.016 c 0,0 73.251,2.439 137.434,43.649 0,0 53.442,29.669 61.377,41.952 15.519,-3.941 30.036,-9.678 42.941,-15.962 -0.636,-22.922 -83.442,-77.967 -83.442,-77.967 v -0.016 c -17.809,0.366 -37.93,1.146 -58.591,2.16 l -0.016,0.016 c -34.419,1.706 -70.363,4.068 -99.703,6.152 z"
         id="path148"
         inkscape:connector-curvature="0"
         style="fill:#2b4a97" /><path
         d="m 629.616,87.896 v 0.016 c 0,0 82.807,55.045 83.442,77.967 21.51,-10.442 38.533,-22.335 48.281,-29.778 l -0.016,-0.016 c -27.692,-27.059 -42.361,-32.72 -68.403,-44.749 -1.152,-0.529 -2.764,-0.998 -4.787,-1.406 -10.448,-2.09 -31.908,-2.537 -58.517,-2.034 z"
         id="path150"
         inkscape:connector-curvature="0"
         style="fill:#f9b510" /><path
         d="m 629.616,87.896 c 26.608,-0.503 48.068,-0.056 58.518,2.033 14.034,-4.378 71.881,-11.893 73.513,-12.104 -16.66,-6.132 -39.9,-13.047 -67.496,-16.918 v 0.016 c -10e-4,0 -56.508,13.695 -64.535,26.973 z"
         id="path152"
         inkscape:connector-curvature="0"
         style="fill:#6bc6e1" /><path
         d="M 761.646,77.826 688.134,89.93 c 2.023,0.408 3.635,0.877 4.787,1.406 26.042,12.029 40.711,17.689 68.403,44.749 l 0.016,0.016 c 5.836,-4.476 9.066,-7.353 9.066,-7.353 0,0 -0.771,-0.732 19.293,-20.806 15.288,-15.307 0.314,-17.788 0.314,-17.788 0,0 -10.364,-5.714 -28.352,-12.328 h -0.015 z"
         id="path154"
         inkscape:connector-curvature="0"
         style="fill:#2b4a97" /><path
         d="m 761.646,77.826 c -1.632,0.211 -59.479,7.726 -73.513,12.104 l 73.513,-12.104 z"
         id="path156"
         inkscape:connector-curvature="0"
         style="fill:#6ab023" /><path
         d="M 629.616,87.896 C 637.642,74.618 694.15,60.922 694.15,60.922 v -0.016 l -2.657,-0.349 c -14.28,-1.875 -38.315,-0.455 -66.539,2.777 -0.111,0.015 -0.237,0.014 -0.349,0.045 -1.347,0.15 -2.692,0.3 -4.055,0.466 -32.395,4.52 -48.999,25.517 -49.525,26.21 20.662,-1.013 40.783,-1.792 58.591,-2.159 z"
         id="path158"
         inkscape:connector-curvature="0"
         style="fill:#bf0b29" /><path
         d="m 761.662,77.826 c 17.987,6.614 28.352,12.328 28.352,12.328 0,0 14.974,2.481 -0.314,17.788 -20.064,20.074 -19.293,20.806 -19.293,20.806 0,0 -3.23,2.877 -9.066,7.353 -9.748,7.443 -26.771,19.336 -48.281,29.778 -12.905,6.284 -27.423,12.021 -42.941,15.962 -24.206,6.152 -50.854,7.921 -77.621,0.462 -89.7,-24.983 -172.677,-52.062 -184.386,-81.208 0,0 124.566,-26.782 212.44,-37.248 1.362,-0.166 2.708,-0.316 4.055,-0.466"
         id="path160"
         inkscape:connector-curvature="0"
         style="fill:none;stroke:#000000;stroke-width:0.79140002" /><path
         d="m 624.954,63.335 c 28.224,-3.231 52.259,-4.652 66.539,-2.777 l 2.657,0.349 c 27.596,3.872 50.836,10.787 67.496,16.918"
         id="path162"
         inkscape:connector-curvature="0"
         style="fill:none;stroke:#000000;stroke-width:0.79140002" /><path
         d="m 571.025,90.057 c 20.661,-1.014 40.782,-1.794 58.591,-2.16 26.608,-0.503 48.068,-0.056 58.518,2.033 2.023,0.408 3.635,0.877 4.787,1.406 26.042,12.029 40.711,17.689 68.403,44.749"
         id="path164"
         inkscape:connector-curvature="0"
         style="fill:none;stroke:#000000;stroke-width:0.79140002" /><path
         d="m 408.11,101.095 c 0,0 26.413,-2.229 63.196,-4.871 29.341,-2.084 65.284,-4.446 99.703,-6.152"
         id="path166"
         inkscape:connector-curvature="0"
         style="fill:none;stroke:#000000;stroke-width:0.79140002" /><path
         d="m 471.307,96.24 c 0,0 73.251,2.439 137.434,43.649 0,0 53.442,29.669 61.377,41.952"
         id="path168"
         inkscape:connector-curvature="0"
         style="fill:none;stroke:#000000;stroke-width:0.79140002" /><path
         d="m 761.646,77.826 c -1.632,0.211 -59.479,7.726 -73.513,12.104"
         id="path170"
         inkscape:connector-curvature="0"
         style="fill:none;stroke:#000000;stroke-width:0.79140002" /><path
         d="m 761.646,77.826 h 0.016 0.016"
         id="path172"
         inkscape:connector-curvature="0"
         style="fill:none;stroke:#000000;stroke-width:0.79140002" /><path
         d="m 694.15,60.923 c 0,0 -56.508,13.695 -64.534,26.974 v 0.016 c 0,0 82.807,55.045 83.442,77.967"
         id="path174"
         inkscape:connector-curvature="0"
         style="fill:none;stroke:#000000;stroke-width:0.79140002" /><path
         d="m 571.01,90.072 0.016,-0.016 c 0.526,-0.693 17.131,-21.69 49.525,-26.21 1.331,-0.198 2.677,-0.348 4.055,-0.466 0.111,-0.031 0.237,-0.03 0.349,-0.045"
         id="path176"
         inkscape:connector-curvature="0"
         style="fill:none;stroke:#000000;stroke-width:0.79140002" /></g></g></svg>